<svg width="226" height="89" viewBox="0 0 226 89" fill="none" xmlns="http://www.w3.org/2000/svg">
<path fill-rule="evenodd" clip-rule="evenodd" d="M130.863 0.145008C130.639 0.246149 129.951 0.72501 129.336 1.20924C123.22 6.01371 96.8934 28.1309 87.2081 36.6005C84.1824 39.2463 84.1095 39.3436 84.4073 40.3368C84.7324 41.4204 86.6009 43.5242 87.4467 43.7589C88.2724 43.9878 88.8633 43.9205 89.3935 43.5367C90.3047 42.8775 96.086 38.1102 108.794 27.5392C121.073 17.3248 126.994 12.444 129.336 10.6038C130.587 9.62036 131.307 9.24434 131.941 9.24434C132.904 9.24434 133.081 9.37709 143.056 17.5847C153.022 25.7846 167.234 37.5907 172.066 41.6836C173.275 42.7078 174.391 43.5952 174.548 43.6557C174.703 43.7162 175.289 43.7658 175.849 43.7658H176.869L177.928 42.5763C179.516 40.7916 179.857 39.936 179.379 38.9304C179.08 38.3019 177.752 37.1191 171.496 31.9137L165.797 27.1707L165.739 17.8694C165.676 7.81057 165.635 7.12333 165.047 6.49916C164.51 5.92721 163.81 5.7619 161.927 5.7619C160.317 5.7619 160.182 5.78068 159.607 6.08252C158.731 6.54333 158.694 6.7295 158.567 11.191C158.508 13.2376 158.404 15.1994 158.334 15.5505C158.027 17.1206 157.179 17.9186 155.82 17.9186C154.706 17.9186 155.484 18.5018 145.132 9.90609C136.094 2.40048 133.958 0.675965 133.267 0.324109C132.592 -0.0196953 131.42 -0.107171 130.863 0.145008Z" fill="#31AFB4"/>
<path d="M33.8633 58.5109C29.6414 65.7089 22.9567 68.5179 19.2625 68.5179C15.5683 68.5179 15.0406 65.7967 15.0406 63.7338C15.0406 62.5049 15.2165 60.9687 15.6123 59.3887H15.7443C21.6813 59.3887 25.9912 57.5453 29.0257 55.263C33.8634 51.664 36.1062 46.5727 36.1062 42.5348C36.1062 38.0579 33.5995 34.02 28.3661 34.02C20.274 34.02 13.5453 43.7637 10.2909 52.9807C6.20095 51.5323 5.98106 48.065 5.98106 47.0994C5.98106 43.1053 9.01557 41.8325 9.10352 41.7886L5.76117 36.9168C2.46279 38.8041 0 42.4909 0 47.0555C0 52.3662 3.07849 56.5797 8.7517 58.4231C8.35589 60.3543 8.136 62.1538 8.136 63.7338C8.136 69.3079 10.9506 73.2142 17.5914 73.2142C25.2436 73.2142 31.8403 68.0351 36.3261 60.2665C35.9743 59.4326 34.8309 58.5987 33.8633 58.5109ZM27.2226 40.9547C28.5859 40.9547 29.0257 42.0081 29.0257 43.1053C29.0257 44.8171 27.9702 47.9772 25.0677 50.4789C23.2646 52.0151 20.7578 53.2879 17.3715 53.5951C19.9222 47.1871 24.0122 40.9547 27.2226 40.9547ZM57.0292 59.8666C54.2146 64.6653 51.5563 67.3962 49.9927 67.3962C49.289 67.3962 48.6244 66.811 50.3836 62.4025L55.231 50.4643H49.0154L47.9208 53.1172C47.9208 53.1172 47.0608 49.9571 43.2689 49.9571C35.8023 49.9571 32.4795 61.9343 32.4795 66.1088C32.4795 68.9178 33.965 71.2196 36.8969 71.2196C40.337 71.2196 43.0343 67.9814 43.0343 67.9814C43.0343 67.9814 43.5425 71.2196 47.6081 71.2196C52.3773 71.2196 56.1692 66.733 59.2184 61.4271C58.9056 60.6859 57.8501 59.9446 57.0292 59.8666ZM39.7897 66.2648C39.0078 66.2648 38.5387 65.8357 38.5387 64.8213C38.5387 62.3245 41.4315 55.0289 44.5198 55.0289C46.2398 55.0289 46.2789 57.2137 46.2789 57.2137L43.738 63.4559C43.738 63.4559 41.9397 66.2648 39.7897 66.2648ZM59.2076 61.4271C59.9894 60.0617 61.0058 58.033 62.0222 56.0433C61.944 57.9939 62.1004 60.4128 62.1004 62.1294C62.1004 65.9137 61.3186 66.9671 60.0676 66.9671C59.5203 66.9671 59.2076 66.811 58.8558 66.4209L55.4157 68.5667C55.4548 68.6057 57.1748 71.2196 62.0222 71.2196C68.5897 71.2196 72.4207 66.5379 75.2744 61.4271C74.9616 60.6859 73.9062 59.9446 73.0852 59.8666C71.3261 62.9097 69.7233 65.0164 67.6515 66.655C67.7687 66.1868 67.8469 65.6406 67.8469 64.5482C67.8078 62.0904 66.9869 55.9652 68.0033 50.4643L62.6086 49.0988C61.1231 52.376 58.5821 57.2137 57.0185 59.8666C57.3312 60.6079 58.3867 61.3491 59.2076 61.4271ZM96.3502 59.8666C93.5355 64.6653 90.8773 67.3962 89.3136 67.3962C88.61 67.3962 87.9454 66.811 89.7045 62.4025L94.5519 50.4643H88.3363L87.2417 53.1172C87.2417 53.1172 86.3817 49.9571 82.5898 49.9571C75.1233 49.9571 71.8004 61.9343 71.8004 66.1088C71.8004 68.9178 73.2859 71.2196 76.2178 71.2196C79.6579 71.2196 82.3553 67.9814 82.3553 67.9814C82.3553 67.9814 82.8634 71.2196 86.929 71.2196C91.6982 71.2196 95.4901 66.733 98.5393 61.4271C98.2266 60.6859 97.1711 59.9446 96.3502 59.8666ZM79.1106 66.2648C78.3288 66.2648 77.8597 65.8357 77.8597 64.8213C77.8597 62.3245 80.7525 55.0289 83.8407 55.0289C85.5608 55.0289 85.5999 57.2137 85.5999 57.2137L83.0589 63.4559C83.0589 63.4559 81.2607 66.2648 79.1106 66.2648Z" fill="black"/>
<path d="M111.119 59.4326C105.841 59.4326 103.422 63.6899 103.422 66.8939C103.422 69.8785 105.577 73.8286 111.514 73.8286C114.857 73.8286 117.407 72.5558 119.343 70.6246C123.477 74.3992 125.763 76.6815 128.358 78.7443C131.041 80.8511 133.504 82.2556 136.406 82.2556C139.441 82.2556 143.003 80.7194 146.169 77.691L142.167 73.1703C140.056 75.1892 138.165 76.2865 136.318 76.2865C135.087 76.2865 133.987 75.8037 131.832 74.1359C129.589 72.2925 125.192 68.3423 122.729 66.06C123.872 63.9533 124.84 61.5832 125.631 59.3887C132.008 59.4765 136.494 57.5453 139.529 55.263C144.41 51.664 146.653 46.5727 146.653 42.5348C146.653 36.9168 142.739 34.02 138.649 34.02C129.677 34.02 125.28 43.5442 121.322 53.1562C116.616 51.7517 116.308 48.1088 116.308 47.0994C116.308 43.1053 119.343 41.8325 119.43 41.7886L116.088 36.9168C112.79 38.8041 110.327 42.4909 110.327 47.0555C110.327 52.3662 113.493 56.5797 119.167 58.4231C118.639 59.5203 118.155 60.6615 117.627 61.7149C115.648 60.3543 113.625 59.4326 111.119 59.4326ZM137.462 40.9547C138.869 40.9547 139.529 41.7886 139.529 43.2809C139.529 44.8171 138.473 47.9772 135.571 50.4789C133.767 52.0151 131.305 53.2879 127.918 53.5951C131.217 45.7826 134.427 40.9547 137.462 40.9547ZM110.987 68.474C109.799 68.474 108.832 67.7717 108.832 66.6306C108.832 65.5333 109.667 64.5239 110.987 64.5239C111.954 64.5239 113.142 65.1383 114.593 66.4111C113.493 67.684 112.262 68.474 110.987 68.474ZM151.287 48.8257C153.124 48.8257 154.727 47.2262 154.727 45.3925C154.727 43.4808 153.124 41.9983 151.287 41.9983C149.371 41.9983 147.847 43.4808 147.847 45.3925C147.847 47.2262 149.371 48.8257 151.287 48.8257ZM154.18 59.8666C151.404 64.6653 148.707 67.3962 147.143 67.3962C146.478 67.3962 145.775 66.85 147.573 62.4025L152.381 50.4643H146.166L141.748 61.3491C138.895 68.4106 141.396 71.2196 144.954 71.2196C149.449 71.2196 153.359 66.694 156.369 61.4271C156.056 60.6859 155 59.9446 154.18 59.8666ZM177.04 59.8666C174.264 64.6653 171.567 67.3962 170.003 67.3962C169.339 67.3962 168.596 66.8891 170.394 62.4025L172.31 57.7599C173.131 55.7311 173.482 54.4047 173.482 53.3513C173.482 51.2836 172.192 49.9571 169.73 49.9571C166.407 49.9571 163.514 52.337 163.318 52.532L164.139 50.4643H157.924L149.714 70.7124H155.93L161.208 57.7208C162.849 55.8482 164.648 54.9509 165.586 54.9509C166.172 54.9509 166.641 55.263 166.641 55.8092C166.641 56.3944 166.016 57.8769 165.273 59.7496L164.687 61.1931C161.911 68.0985 163.592 71.2196 167.658 71.2196C172.349 71.2196 176.102 66.85 179.229 61.4271C178.916 60.6859 177.861 59.9446 177.04 59.8666ZM200.259 59.8666C197.444 64.6653 194.786 67.3962 193.223 67.3962C192.558 67.3962 191.815 66.85 193.613 62.4025L201.588 42.7396H195.373L191.151 53.1172C191.151 53.1172 190.252 49.9571 186.538 49.9571C179.384 49.9571 175.669 61.8173 175.669 66.1478C175.669 68.8397 177.156 71.2196 180.088 71.2196C183.567 71.2196 186.264 67.9814 186.264 67.9814C186.264 67.9814 186.772 71.2196 190.877 71.2196C195.607 71.2196 199.399 66.733 202.448 61.4271C202.135 60.6859 201.08 59.9446 200.259 59.8666ZM183.02 66.2648C182.238 66.2648 181.769 65.8357 181.769 64.8213C181.769 62.3245 184.661 55.0289 187.75 55.0289C189.47 55.0289 189.509 57.2137 189.509 57.2137L186.968 63.4559C186.968 63.4559 185.209 66.2648 183.02 66.2648ZM223.509 59.8666C220.694 64.6653 218.036 67.3962 216.472 67.3962C215.769 67.3962 215.104 66.811 216.863 62.4025L221.711 50.4643H215.495L214.401 53.1172C214.401 53.1172 213.541 49.9571 209.749 49.9571C202.282 49.9571 198.958 61.9343 198.958 66.1088C198.958 68.9178 200.445 71.2196 203.377 71.2196C206.817 71.2196 209.514 67.9814 209.514 67.9814C209.514 67.9814 210.022 71.2196 214.088 71.2196C218.857 71.2196 222.649 66.733 225.698 61.4271C225.385 60.6859 224.33 59.9446 223.509 59.8666ZM206.269 66.2648C205.488 66.2648 205.019 65.8357 205.019 64.8213C205.019 62.3245 207.911 55.0289 210.998 55.0289C212.72 55.0289 212.759 57.2137 212.759 57.2137L210.218 63.4559C210.218 63.4559 208.42 66.2648 206.269 66.2648Z" fill="black"/>
<mask id="mask0_133_22" style="mask-type:alpha" maskUnits="userSpaceOnUse" x="103" y="34" width="123" height="49">
<path d="M111.119 59.4326C105.841 59.4326 103.422 63.6899 103.422 66.8939C103.422 69.8785 105.577 73.8286 111.514 73.8286C114.857 73.8286 117.407 72.5558 119.343 70.6246C123.477 74.3992 125.763 76.6815 128.358 78.7443C131.041 80.8511 133.504 82.2556 136.406 82.2556C139.441 82.2556 143.003 80.7194 146.169 77.691L142.167 73.1703C140.056 75.1892 138.165 76.2865 136.318 76.2865C135.087 76.2865 133.987 75.8037 131.832 74.1359C129.589 72.2925 125.192 68.3423 122.729 66.06C123.872 63.9533 124.84 61.5832 125.631 59.3887C132.008 59.4765 136.494 57.5453 139.529 55.263C144.41 51.664 146.653 46.5727 146.653 42.5348C146.653 36.9168 142.739 34.02 138.649 34.02C129.677 34.02 125.28 43.5442 121.322 53.1562C116.616 51.7517 116.308 48.1088 116.308 47.0994C116.308 43.1053 119.343 41.8325 119.43 41.7886L116.088 36.9168C112.79 38.8041 110.327 42.4909 110.327 47.0555C110.327 52.3662 113.493 56.5797 119.167 58.4231C118.639 59.5203 118.155 60.6615 117.627 61.7149C115.648 60.3543 113.625 59.4326 111.119 59.4326ZM137.462 40.9547C138.869 40.9547 139.529 41.7886 139.529 43.2809C139.529 44.8171 138.473 47.9772 135.571 50.4789C133.767 52.0151 131.305 53.2879 127.918 53.5951C131.217 45.7826 134.427 40.9547 137.462 40.9547ZM110.987 68.474C109.799 68.474 108.832 67.7717 108.832 66.6306C108.832 65.5333 109.667 64.5239 110.987 64.5239C111.954 64.5239 113.142 65.1383 114.593 66.4111C113.493 67.684 112.262 68.474 110.987 68.474ZM151.287 48.8257C153.124 48.8257 154.727 47.2262 154.727 45.3925C154.727 43.4808 153.124 41.9983 151.287 41.9983C149.371 41.9983 147.847 43.4808 147.847 45.3925C147.847 47.2262 149.371 48.8257 151.287 48.8257ZM154.18 59.8666C151.404 64.6653 148.707 67.3962 147.143 67.3962C146.478 67.3962 145.775 66.85 147.573 62.4025L152.381 50.4643H146.166L141.748 61.3491C138.895 68.4106 141.396 71.2196 144.954 71.2196C149.449 71.2196 153.359 66.694 156.369 61.4271C156.056 60.6859 155 59.9446 154.18 59.8666ZM177.04 59.8666C174.264 64.6653 171.567 67.3962 170.003 67.3962C169.339 67.3962 168.596 66.8891 170.394 62.4025L172.31 57.7599C173.131 55.7311 173.482 54.4047 173.482 53.3513C173.482 51.2836 172.192 49.9571 169.73 49.9571C166.407 49.9571 163.514 52.337 163.318 52.532L164.139 50.4643H157.924L149.714 70.7124H155.93L161.208 57.7208C162.849 55.8482 164.648 54.9509 165.586 54.9509C166.172 54.9509 166.641 55.263 166.641 55.8092C166.641 56.3944 166.016 57.8769 165.273 59.7496L164.687 61.1931C161.911 68.0985 163.592 71.2196 167.658 71.2196C172.349 71.2196 176.102 66.85 179.229 61.4271C178.916 60.6859 177.861 59.9446 177.04 59.8666ZM200.259 59.8666C197.444 64.6653 194.786 67.3962 193.223 67.3962C192.558 67.3962 191.815 66.85 193.613 62.4025L201.588 42.7396H195.373L191.151 53.1172C191.151 53.1172 190.252 49.9571 186.538 49.9571C179.384 49.9571 175.669 61.8173 175.669 66.1478C175.669 68.8397 177.156 71.2196 180.088 71.2196C183.567 71.2196 186.264 67.9814 186.264 67.9814C186.264 67.9814 186.772 71.2196 190.877 71.2196C195.607 71.2196 199.399 66.733 202.448 61.4271C202.135 60.6859 201.08 59.9446 200.259 59.8666ZM183.02 66.2648C182.238 66.2648 181.769 65.8357 181.769 64.8213C181.769 62.3245 184.661 55.0289 187.75 55.0289C189.47 55.0289 189.509 57.2137 189.509 57.2137L186.968 63.4559C186.968 63.4559 185.209 66.2648 183.02 66.2648ZM223.509 59.8666C220.694 64.6653 218.036 67.3962 216.472 67.3962C215.769 67.3962 215.104 66.811 216.863 62.4025L221.711 50.4643H215.495L214.401 53.1172C214.401 53.1172 213.541 49.9571 209.749 49.9571C202.282 49.9571 198.958 61.9343 198.958 66.1088C198.958 68.9178 200.445 71.2196 203.377 71.2196C206.817 71.2196 209.514 67.9814 209.514 67.9814C209.514 67.9814 210.022 71.2196 214.088 71.2196C218.857 71.2196 222.649 66.733 225.698 61.4271C225.385 60.6859 224.33 59.9446 223.509 59.8666ZM206.269 66.2648C205.488 66.2648 205.019 65.8357 205.019 64.8213C205.019 62.3245 207.911 55.0289 210.998 55.0289C212.72 55.0289 212.759 57.2137 212.759 57.2137L210.218 63.4559C210.218 63.4559 208.42 66.2648 206.269 66.2648Z" fill="black"/>
</mask>
<g mask="url(#mask0_133_22)">
<path fill-rule="evenodd" clip-rule="evenodd" d="M107.205 52.5194C106.249 52.7801 106.514 52.5422 98.0079 60.7634C93.5895 65.0336 89.877 68.6688 89.7578 68.8416C88.843 70.1662 89.0271 71.9386 90.1969 73.0708C90.8844 73.736 91.7064 74.0629 92.6949 74.0645L93.2302 74.0654V79.8253C93.2302 86.1621 93.2187 85.9845 93.6888 86.8862C94.0212 87.5239 94.8237 88.2704 95.5192 88.5893C95.8239 88.7289 96.2491 88.8785 96.4644 88.9215C96.715 88.9718 98.0707 88.9999 100.238 88.9999H103.62L103.864 88.8391C103.998 88.7507 104.177 88.5876 104.262 88.4768C104.415 88.2781 104.417 88.2048 104.454 83.5105C104.487 79.1797 104.502 78.7254 104.618 78.5212C104.808 78.1857 105.186 77.848 105.561 77.6802C105.875 77.5397 106.019 77.531 108.072 77.531C110.128 77.531 110.269 77.5394 110.582 77.6807C110.97 77.8555 111.333 78.1955 111.52 78.5595C111.643 78.7974 111.656 79.1815 111.69 83.5335C111.725 88.014 111.734 88.2609 111.868 88.4752C111.945 88.5992 112.133 88.7679 112.284 88.8503C112.552 88.996 112.646 88.9999 115.924 88.9999C118.078 88.9999 119.429 88.9718 119.679 88.9215C121.134 88.6302 122.46 87.3848 122.8 85.9921C122.895 85.6039 122.912 84.662 122.912 79.7998L122.913 74.0654L123.448 74.0645C124.442 74.0629 125.259 73.7361 125.956 73.0617C126.406 72.6263 126.793 71.9575 126.875 71.4735C126.899 71.3253 126.95 71.1866 126.984 71.1656C127.019 71.1445 127.049 70.9021 127.049 70.627C127.049 70.3519 127.019 70.1441 126.984 70.1655C126.948 70.1867 126.899 70.0841 126.874 69.9375C126.849 69.7908 126.727 69.4618 126.603 69.2063C126.392 68.7757 125.79 68.175 118.35 60.9676C113.936 56.6917 110.178 53.0989 109.999 52.9836C109.233 52.4877 108.046 52.2905 107.205 52.5194ZM89.1939 70.7069C89.1939 71.0017 89.2069 71.1223 89.2228 70.9749C89.2388 70.8275 89.2388 70.5863 89.2228 70.4389C89.2069 70.2916 89.1939 70.4121 89.1939 70.7069Z" fill="#31AFB4"/>
</g>
<mask id="mask1_133_22" style="mask-type:alpha" maskUnits="userSpaceOnUse" x="0" y="34" width="99" height="40">
<path d="M33.8633 58.5109C29.6414 65.7089 22.9567 68.5179 19.2625 68.5179C15.5683 68.5179 15.0406 65.7967 15.0406 63.7338C15.0406 62.5049 15.2165 60.9687 15.6123 59.3887H15.7443C21.6813 59.3887 25.9912 57.5453 29.0257 55.263C33.8634 51.664 36.1062 46.5727 36.1062 42.5348C36.1062 38.0579 33.5995 34.02 28.3661 34.02C20.274 34.02 13.5453 43.7637 10.2909 52.9807C6.20095 51.5323 5.98106 48.065 5.98106 47.0994C5.98106 43.1053 9.01557 41.8325 9.10352 41.7886L5.76117 36.9168C2.46279 38.8041 0 42.4909 0 47.0555C0 52.3662 3.07849 56.5797 8.7517 58.4231C8.35589 60.3543 8.136 62.1538 8.136 63.7338C8.136 69.3079 10.9506 73.2142 17.5914 73.2142C25.2436 73.2142 31.8403 68.0351 36.3261 60.2665C35.9743 59.4326 34.8309 58.5987 33.8633 58.5109ZM27.2226 40.9547C28.5859 40.9547 29.0257 42.0081 29.0257 43.1053C29.0257 44.8171 27.9702 47.9772 25.0677 50.4789C23.2646 52.0151 20.7578 53.2879 17.3715 53.5951C19.9222 47.1871 24.0122 40.9547 27.2226 40.9547ZM57.0292 59.8666C54.2146 64.6653 51.5563 67.3962 49.9927 67.3962C49.289 67.3962 48.6244 66.811 50.3836 62.4025L55.231 50.4643H49.0154L47.9208 53.1172C47.9208 53.1172 47.0608 49.9571 43.2689 49.9571C35.8023 49.9571 32.4795 61.9343 32.4795 66.1088C32.4795 68.9178 33.965 71.2196 36.8969 71.2196C40.337 71.2196 43.0343 67.9814 43.0343 67.9814C43.0343 67.9814 43.5425 71.2196 47.6081 71.2196C52.3773 71.2196 56.1692 66.733 59.2184 61.4271C58.9056 60.6859 57.8501 59.9446 57.0292 59.8666ZM39.7897 66.2648C39.0078 66.2648 38.5387 65.8357 38.5387 64.8213C38.5387 62.3245 41.4315 55.0289 44.5198 55.0289C46.2398 55.0289 46.2789 57.2137 46.2789 57.2137L43.738 63.4559C43.738 63.4559 41.9397 66.2648 39.7897 66.2648ZM59.2076 61.4271C59.9894 60.0617 61.0058 58.033 62.0222 56.0433C61.944 57.9939 62.1004 60.4128 62.1004 62.1294C62.1004 65.9137 61.3186 66.9671 60.0676 66.9671C59.5203 66.9671 59.2076 66.811 58.8558 66.4209L55.4157 68.5667C55.4548 68.6057 57.1748 71.2196 62.0222 71.2196C68.5897 71.2196 72.4207 66.5379 75.2744 61.4271C74.9616 60.6859 73.9062 59.9446 73.0852 59.8666C71.3261 62.9097 69.7233 65.0164 67.6515 66.655C67.7687 66.1868 67.8469 65.6406 67.8469 64.5482C67.8078 62.0904 66.9869 55.9652 68.0033 50.4643L62.6086 49.0988C61.1231 52.376 58.5821 57.2137 57.0185 59.8666C57.3312 60.6079 58.3867 61.3491 59.2076 61.4271ZM96.3502 59.8666C93.5355 64.6653 90.8773 67.3962 89.3136 67.3962C88.61 67.3962 87.9454 66.811 89.7045 62.4025L94.5519 50.4643H88.3363L87.2417 53.1172C87.2417 53.1172 86.3817 49.9571 82.5898 49.9571C75.1233 49.9571 71.8004 61.9343 71.8004 66.1088C71.8004 68.9178 73.2859 71.2196 76.2178 71.2196C79.6579 71.2196 82.3553 67.9814 82.3553 67.9814C82.3553 67.9814 82.8634 71.2196 86.929 71.2196C91.6982 71.2196 95.4901 66.733 98.5393 61.4271C98.2266 60.6859 97.1711 59.9446 96.3502 59.8666ZM79.1106 66.2648C78.3288 66.2648 77.8597 65.8357 77.8597 64.8213C77.8597 62.3245 80.7525 55.0289 83.8407 55.0289C85.5608 55.0289 85.5999 57.2137 85.5999 57.2137L83.0589 63.4559C83.0589 63.4559 81.2607 66.2648 79.1106 66.2648Z" fill="black"/>
</mask>
<g mask="url(#mask1_133_22)">
<path fill-rule="evenodd" clip-rule="evenodd" d="M-11.3503 33.7313C-12.3686 34.0353 -12.0861 33.7579 -21.1412 43.3491C-25.8446 48.3312 -29.7967 52.5722 -29.9236 52.7736C-30.8973 54.3192 -30.7014 56.387 -29.4561 57.7078C-28.7243 58.4839 -27.8493 58.8654 -26.797 58.8672L-26.2271 58.8682V65.588C-26.2271 72.981 -26.2394 72.7739 -25.7389 73.8258C-25.385 74.5697 -24.5309 75.4407 -23.7904 75.8127C-23.4662 75.9755 -23.0135 76.1501 -22.7844 76.2004C-22.5174 76.259 -21.0744 76.2918 -18.7676 76.2918H-15.1674L-14.9075 76.1042C-14.7646 76.001 -14.5737 75.8108 -14.4833 75.6814C-14.3212 75.4496 -14.3182 75.3641 -14.2795 69.8875C-14.2438 64.8349 -14.2278 64.3048 -14.1049 64.0666C-13.9029 63.6751 -13.4999 63.2812 -13.1012 63.0855C-12.767 62.9214 -12.6137 62.9114 -10.4279 62.9114C-8.23899 62.9114 -8.08933 62.9212 -7.75543 63.0862C-7.34253 63.29 -6.95626 63.6866 -6.75686 64.1112C-6.62661 64.3888 -6.61262 64.837 -6.57639 69.9143C-6.53905 75.1416 -6.52962 75.4296 -6.38695 75.6795C-6.30442 75.8242 -6.105 76.0211 -5.94394 76.1172C-5.65854 76.2873 -5.55911 76.2918 -2.06953 76.2918C0.223707 76.2918 1.66182 76.2589 1.92852 76.2004C3.47692 75.8603 4.8891 74.4074 5.2502 72.7826C5.35089 72.3298 5.36913 71.2309 5.37007 65.5584L5.37125 58.8682L5.94113 58.8672C6.99826 58.8654 7.86839 58.484 8.61009 57.6973C9.08917 57.1892 9.5009 56.409 9.58799 55.8444C9.61463 55.6714 9.66721 55.5097 9.7047 55.4851C9.74228 55.4604 9.77301 55.1777 9.77301 54.8567C9.77301 54.5358 9.74205 54.2934 9.70424 54.3183C9.66643 54.3431 9.61385 54.2233 9.58743 54.0523C9.5611 53.8811 9.43093 53.4973 9.29825 53.1992C9.07462 52.6969 13.862 42.6814 5.94113 34.2727C1.24208 29.2842 -8.18601 34.4073 -8.376 34.2727C-9.19229 33.6942 -10.4559 33.4642 -11.3503 33.7313ZM-30.5239 54.95C-30.5239 55.2938 -30.51 55.4346 -30.493 55.2626C-30.476 55.0907 -30.476 54.8093 -30.493 54.6374C-30.51 54.4655 -30.5239 54.606 -30.5239 54.95Z" fill="#31AFB4"/>
</g>
</svg>
