<svg width="160" height="159" viewBox="0 0 160 159" fill="none" xmlns="http://www.w3.org/2000/svg">
<path fill-rule="evenodd" clip-rule="evenodd" d="M77.5866 0.40807C70.5242 1.14154 61.1094 3.7485 54.1756 6.89063C38.9894 13.7726 25.8693 26.7859 18.4815 42.2942C16.1566 47.1753 13.782 54.4004 12.6248 60.1177C11.8303 64.0419 11.705 65.8715 11.7002 73.6164C11.6954 81.4313 11.8135 83.1606 12.626 87.1549C14.536 96.5418 18.1018 105.422 23.0904 113.213C24.8142 115.905 25.6839 117.691 25.8089 118.794C26.0191 120.648 26.7187 119.51 15.6412 135.336C11.8856 140.702 7.83969 146.483 6.65001 148.184C5.46034 149.886 3.44739 152.742 2.17644 154.532C0.905878 156.322 -0.0715659 157.972 0.00411496 158.199C0.237564 158.894 2.78549 159.23 4.77882 158.826C7.54097 158.267 9.66844 157.147 13.4965 154.235C15.3685 152.81 17.2938 151.367 17.7747 151.028C18.29 150.664 20.1548 150.27 22.3143 150.068C29.094 149.436 32.6958 147.065 38.9233 139.134C42.8319 134.156 43.298 134.026 47.3479 136.784C50.4056 138.866 54.8299 140.978 60.1464 142.893C64.3328 144.401 65.8064 145.206 68.5553 147.488C69.6565 148.401 70.9511 149.356 71.432 149.609C73.0273 150.448 75.7062 150.147 78.5909 148.804C81.158 147.61 81.6714 147.522 87.8756 147.219C91.4874 147.042 96.096 146.618 98.1165 146.276C120.697 142.456 139.591 129.114 150.95 108.969C160.934 91.2626 162.799 68.3602 155.838 48.9285C154.377 44.8518 150.949 38.075 148.338 34.1014C142.006 24.4688 132.595 15.5385 122.63 9.70664C109.676 2.12467 93.4027 -1.23447 77.5866 0.40807ZM80.5682 7.38518C64.6151 8.70996 46.1814 18.1133 35.4256 30.4126C28.0112 38.8909 22.716 49.5959 20.2349 61.1219C19.4185 64.9155 19.3031 66.5413 19.3055 74.2137C19.3075 81.0303 19.4661 83.7487 20.0203 86.466C21.6452 94.4286 25.0709 102.471 29.5389 108.811L32.0327 112.35L35.2778 112.096C37.0629 111.956 40.6395 111.403 43.2259 110.866C63.7947 106.599 81.9701 94.347 88.8843 80.089C91.3121 75.0833 91.306 71.5275 88.8674 69.6197L87.8143 68.7963L87.1608 71.1066C84.2237 81.4902 77.4701 89.6595 65.7495 97.0065C60.0763 100.562 45.3918 106.051 40.3909 106.484C38.9233 106.611 37.3168 106.797 36.8214 106.898C36.3261 106.998 35.9205 106.923 35.9205 106.733C35.9205 106.542 46.4982 91.263 59.4264 72.7794C76.9507 47.7252 82.9375 38.8801 82.9515 38.022C82.9691 36.9676 82.7401 36.7777 80.2222 35.7591C76.8326 34.3877 75.8615 33.503 74.3131 30.3752C72.7771 27.2721 72.8531 25.7593 74.5618 25.4336C76.8358 25 106.885 25.3356 109.574 25.825C113.028 26.453 115.383 27.7121 117.897 30.2732C119.047 31.4447 120.263 32.6345 120.6 32.9168C121.154 33.3823 121.481 34.9918 121.021 34.9918C120.916 34.9918 120.241 34.6342 119.519 34.197C117.886 33.2063 113.139 33.1064 110.117 33.9987C107.766 34.6928 105.597 36.8107 104.257 39.7215C102.974 42.5077 103.069 46.8814 104.472 49.5489C105.822 52.1176 107.686 54.105 108.743 54.105C109.877 54.105 110.662 53.18 115.129 46.5827C119.245 40.5052 121.769 37.3809 122.566 37.3809C123.418 37.3809 125.946 40.2993 126.878 42.3583C128.082 45.0179 128.104 49.4402 126.928 52.4003C126.093 54.5036 123.411 58.4851 122.829 58.4851C122.655 58.4851 122.398 57.9145 122.258 57.2172C121.954 55.7069 120.953 54.5032 119.999 54.5032C119.621 54.5032 118.456 54.8795 117.41 55.3394C115.869 56.0171 115.089 56.1234 113.292 55.9004C112.073 55.7487 110.82 55.5273 110.508 55.4083C110.028 55.2255 109.984 55.9833 110.215 60.3227C110.657 68.5697 109.399 77.7767 106.945 84.2632C105.476 88.1468 100.875 97.0408 98.8565 99.897C97.8506 101.321 92.1301 107.413 86.1445 113.436C80.1589 119.458 75.0591 124.777 74.8116 125.255C74.1073 126.617 74.2662 129.135 75.1252 130.221C75.5452 130.752 76.9195 131.705 78.1788 132.339C80.3367 133.424 82.7705 135.958 82.7705 137.118C82.7705 137.376 83.2366 138.021 83.8064 138.552C84.7799 139.459 85.095 139.512 89.0192 139.437C104.534 139.142 120.912 131.997 132.647 120.404C138.444 114.678 142.093 109.713 145.555 102.842C150.723 92.5846 152.946 80.8555 152.021 68.723C150.768 52.288 145.407 39.7745 135.036 29.0723C121.017 14.6044 99.0339 5.85175 80.5682 7.38518ZM107.82 37.8679C106.941 39.1151 107.045 40.2861 108.123 41.2936C109.318 42.4097 110.442 42.3914 111.532 41.2378C113.195 39.4766 112.18 36.9828 109.799 36.9828C108.852 36.9828 108.255 37.2495 107.82 37.8679ZM51.4719 122.962C48.7514 125.744 48.2909 126.986 49.4177 128.502C50.1641 129.507 56.7451 133.191 60.8355 134.894L62.7263 135.68L58.9315 128.142C56.2442 122.802 54.9388 120.603 54.4579 120.603C54.0843 120.603 52.7409 121.665 51.4719 122.962Z" fill="#B2D0D1"/>
</svg>
