<svg width="50" height="49" viewBox="0 0 50 49" fill="none" xmlns="http://www.w3.org/2000/svg">
<path fill-rule="evenodd" clip-rule="evenodd" d="M18.9476 0.0196382C14.0058 0.368695 9.4653 2.41296 5.97823 5.8588C-1.97333 13.7167 -1.9955 26.3406 5.92852 34.2561C9.15669 37.4807 13.3798 39.5046 18.0093 40.0455C19.2526 40.1908 22.3202 40.1086 23.489 39.8986C26.1924 39.413 28.7109 38.4682 30.8371 37.1421C31.2797 36.866 31.6737 36.6402 31.7127 36.6402C31.7518 36.6402 34.4442 39.2742 37.6957 42.4937C43.1797 47.9234 43.6523 48.3666 44.2244 48.6155C45.8916 49.341 47.6294 49.0273 48.8519 47.7803C50.1282 46.4783 50.3585 44.6374 49.4519 42.9838C49.2727 42.657 47.3672 40.6916 43.275 36.6132L37.3572 30.7151L37.5424 30.4025C39.2085 27.5892 40.0956 24.7751 40.3574 21.4723C40.4944 19.7438 40.3665 17.828 39.9919 15.9959C38.3263 7.85164 31.4457 1.40412 23.1472 0.211489C22.0683 0.0564168 19.857 -0.044603 18.9476 0.0196382ZM18.0687 6.69442C13.682 7.46502 10.1464 10.0066 8.10749 13.855C6.00431 17.8246 6.10568 22.9182 8.36473 26.7866C10.3713 30.2223 13.6282 32.5603 17.5003 33.3443C25.0666 34.8764 32.3151 29.8998 33.6497 22.2566C33.8486 21.1177 33.8505 19.1102 33.6538 17.8958C32.766 12.414 28.5278 8.01913 22.9518 6.79835C21.9611 6.58146 19.0626 6.51975 18.0687 6.69442Z" fill="black"/>
</svg>
